<svg xmlns="http://www.w3.org/2000/svg" xmlns:xlink="http://www.w3.org/1999/xlink" id="svg" version="1.1" width="100" height="100" viewBox="0,0,400,400">
	<g id="svgg">
		<path id="path0" d="M190.800 0.600 C 190.800 0.985,190.405 1.205,189.700 1.213 C 184.773 1.272,176.308 2.049,174.835 2.577 C 173.864 2.925,171.239 3.369,169.000 3.564 C 166.357 3.793,164.382 4.192,163.365 4.702 C 162.504 5.134,160.575 5.597,159.078 5.731 C 157.578 5.865,155.691 6.328,154.878 6.761 C 154.065 7.194,152.249 7.735,150.842 7.964 C 149.436 8.193,147.996 8.625,147.642 8.923 C 147.289 9.221,145.851 9.669,144.448 9.918 C 143.044 10.167,141.590 10.647,141.217 10.985 C 140.844 11.322,139.679 11.759,138.627 11.955 C 137.575 12.152,136.239 12.663,135.657 13.092 C 135.076 13.520,133.817 13.975,132.860 14.103 C 131.902 14.230,130.796 14.683,130.398 15.110 C 130.000 15.537,128.977 15.997,128.123 16.134 C 127.269 16.271,126.193 16.734,125.732 17.163 C 125.271 17.593,124.174 18.138,123.293 18.375 C 122.413 18.612,121.487 19.054,121.234 19.358 C 120.982 19.662,120.004 20.105,119.061 20.343 C 118.119 20.580,117.016 21.140,116.612 21.587 C 116.207 22.034,115.558 22.400,115.169 22.400 C 114.780 22.400,113.927 22.850,113.273 23.400 C 112.619 23.950,111.837 24.400,111.535 24.400 C 111.233 24.400,110.323 24.850,109.514 25.400 C 108.705 25.950,107.845 26.400,107.603 26.400 C 107.361 26.400,106.737 26.827,106.215 27.348 C 105.694 27.870,104.798 28.414,104.223 28.558 C 103.649 28.702,102.862 29.138,102.473 29.527 C 102.084 29.916,101.188 30.473,100.483 30.766 C 99.777 31.058,99.200 31.462,99.200 31.663 C 99.200 31.864,98.390 32.376,97.400 32.800 C 96.410 33.224,95.600 33.756,95.600 33.980 C 95.600 34.205,94.970 34.652,94.200 34.974 C 93.430 35.296,92.800 35.715,92.800 35.906 C 92.800 36.096,92.131 36.571,91.313 36.961 C 90.495 37.351,89.585 38.014,89.291 38.435 C 88.996 38.856,88.499 39.200,88.187 39.200 C 87.874 39.200,87.324 39.650,86.963 40.200 C 86.603 40.750,86.069 41.200,85.777 41.200 C 85.484 41.200,85.010 41.532,84.723 41.938 C 84.435 42.344,83.722 42.929,83.138 43.238 C 81.939 43.872,79.021 46.336,75.605 49.600 C 74.338 50.810,72.559 52.426,71.651 53.191 C 70.743 53.956,70.000 54.811,70.000 55.091 C 70.000 55.371,69.726 55.600,69.391 55.600 C 69.057 55.600,68.587 56.030,68.347 56.556 C 68.108 57.082,67.482 57.708,66.956 57.947 C 66.430 58.187,66.000 58.628,66.000 58.927 C 66.000 59.227,65.550 59.677,65.000 59.927 C 64.450 60.178,64.000 60.575,64.000 60.809 C 64.000 61.043,63.010 62.201,61.800 63.383 C 60.590 64.564,59.600 65.726,59.600 65.965 C 59.600 66.204,59.330 66.400,59.000 66.400 C 58.670 66.400,58.400 66.563,58.400 66.763 C 58.400 66.962,57.275 68.477,55.900 70.128 C 54.525 71.779,52.860 73.883,52.200 74.802 C 51.540 75.721,50.685 76.643,50.300 76.851 C 49.915 77.058,49.600 77.423,49.600 77.661 C 49.600 77.899,49.060 78.709,48.400 79.461 C 47.740 80.213,47.200 81.026,47.200 81.268 C 47.200 81.510,46.750 82.125,46.200 82.635 C 44.399 84.304,44.974 87.493,47.202 88.201 C 47.641 88.340,48.000 88.632,48.000 88.849 C 48.000 89.067,48.810 89.603,49.800 90.041 C 50.790 90.479,51.600 91.013,51.600 91.227 C 51.600 91.442,52.088 91.838,52.685 92.109 C 53.282 92.379,54.208 93.005,54.743 93.500 C 55.279 93.995,55.962 94.400,56.261 94.400 C 56.560 94.400,57.197 94.850,57.675 95.400 C 58.153 95.950,58.757 96.400,59.017 96.400 C 59.277 96.400,60.169 96.940,61.000 97.600 C 61.831 98.260,62.845 98.800,63.255 98.800 C 63.665 98.800,64.000 99.074,64.000 99.409 C 64.000 99.743,64.488 100.238,65.085 100.509 C 65.682 100.779,66.608 101.405,67.143 101.900 C 67.679 102.395,68.444 102.800,68.844 102.800 C 69.244 102.800,69.763 103.158,69.997 103.595 C 70.232 104.033,70.872 104.503,71.421 104.641 C 71.970 104.779,72.654 105.227,72.941 105.638 C 73.229 106.048,74.125 106.660,74.932 106.997 C 75.739 107.335,76.400 107.776,76.400 107.978 C 76.400 108.181,76.805 108.473,77.300 108.627 C 77.795 108.782,78.791 109.424,79.514 110.054 C 80.237 110.684,81.059 111.200,81.342 111.200 C 81.624 111.200,82.247 111.650,82.725 112.200 C 83.203 112.750,83.838 113.200,84.135 113.200 C 84.433 113.200,84.987 113.544,85.367 113.963 C 85.747 114.383,86.630 114.959,87.329 115.243 C 88.028 115.527,88.821 116.063,89.091 116.434 C 89.361 116.805,90.036 117.223,90.591 117.362 C 91.146 117.501,91.600 117.853,91.600 118.143 C 91.600 118.692,93.220 119.600,94.199 119.600 C 94.508 119.600,94.905 119.858,95.081 120.173 C 95.481 120.888,97.750 122.554,99.600 123.491 C 100.370 123.881,101.235 124.515,101.523 124.900 C 101.810 125.285,102.274 125.600,102.553 125.600 C 102.832 125.600,103.469 126.035,103.968 126.566 C 104.467 127.098,105.347 127.650,105.922 127.795 C 106.498 127.939,107.335 128.419,107.784 128.860 C 109.202 130.254,111.689 132.000,112.258 132.000 C 112.559 132.000,113.197 132.450,113.675 133.000 C 114.153 133.550,114.844 134.000,115.210 134.000 C 115.576 134.000,116.202 134.360,116.600 134.800 C 117.819 136.147,118.748 135.536,122.387 131.000 C 125.214 127.476,125.588 127.031,127.177 125.300 C 128.035 124.365,128.931 123.600,129.169 123.600 C 129.406 123.600,129.600 123.435,129.600 123.233 C 129.600 122.761,132.627 119.600,133.080 119.600 C 133.268 119.600,133.867 119.105,134.411 118.500 C 134.955 117.895,136.103 116.860,136.963 116.200 C 137.822 115.540,139.018 114.595,139.620 114.100 C 140.223 113.605,140.910 113.200,141.149 113.200 C 141.387 113.200,141.876 112.750,142.237 112.200 C 142.597 111.650,143.056 111.200,143.256 111.200 C 143.649 111.200,147.389 108.802,148.454 107.867 C 148.813 107.551,149.757 107.078,150.551 106.816 C 151.344 106.554,152.130 106.108,152.297 105.825 C 152.464 105.542,153.410 104.930,154.400 104.465 C 155.390 104.000,156.470 103.446,156.800 103.234 C 157.130 103.021,157.882 102.747,158.472 102.623 C 159.062 102.500,159.835 102.108,160.190 101.753 C 160.545 101.398,161.593 100.937,162.518 100.729 C 163.443 100.521,164.560 100.021,165.000 99.618 C 165.440 99.214,166.610 98.758,167.600 98.604 C 168.590 98.450,169.961 98.001,170.647 97.607 C 171.333 97.212,172.863 96.764,174.047 96.611 C 175.231 96.458,176.880 95.988,177.711 95.567 C 178.580 95.127,180.871 94.617,183.097 94.369 C 185.228 94.131,187.698 93.649,188.586 93.297 C 191.472 92.153,214.808 92.082,218.508 93.205 C 220.059 93.676,222.874 94.222,224.764 94.418 C 226.654 94.614,228.920 95.119,229.800 95.541 C 230.680 95.963,232.390 96.438,233.600 96.596 C 234.810 96.754,236.340 97.209,237.000 97.607 C 237.660 98.004,239.044 98.454,240.076 98.607 C 241.108 98.759,242.249 99.212,242.611 99.613 C 242.974 100.014,244.020 100.468,244.936 100.622 C 245.851 100.776,247.109 101.329,247.731 101.851 C 248.353 102.373,249.360 102.800,249.969 102.800 C 250.578 102.800,251.396 103.153,251.786 103.585 C 252.177 104.017,253.150 104.584,253.948 104.846 C 254.747 105.108,255.625 105.641,255.900 106.030 C 256.176 106.418,256.928 106.852,257.573 106.994 C 258.217 107.136,258.968 107.520,259.241 107.849 C 259.513 108.177,260.336 108.697,261.068 109.003 C 261.801 109.309,262.400 109.746,262.400 109.974 C 262.400 110.202,263.061 110.665,263.868 111.003 C 264.675 111.340,265.585 111.972,265.891 112.408 C 266.196 112.844,266.660 113.201,266.923 113.203 C 267.185 113.205,268.348 114.060,269.507 115.103 C 270.665 116.146,272.263 117.540,273.058 118.200 C 275.504 120.233,281.848 126.710,284.050 129.424 C 285.199 130.841,286.269 132.000,286.426 132.000 C 286.584 132.000,286.823 132.438,286.958 132.973 C 287.092 133.509,287.561 134.061,288.001 134.200 C 288.440 134.340,288.800 134.769,288.800 135.155 C 288.800 135.540,289.340 136.461,290.000 137.200 C 290.660 137.939,291.200 138.771,291.200 139.049 C 291.200 139.327,291.534 139.790,291.943 140.077 C 292.351 140.365,292.813 141.006,292.970 141.502 C 293.127 141.998,293.668 142.898,294.173 143.502 C 294.678 144.106,295.226 145.050,295.391 145.600 C 295.557 146.150,296.008 146.960,296.393 147.400 C 296.779 147.840,297.222 148.740,297.377 149.400 C 297.532 150.060,297.975 150.960,298.362 151.400 C 298.748 151.840,299.279 152.957,299.543 153.882 C 299.806 154.807,300.282 155.825,300.600 156.143 C 300.919 156.461,301.357 157.505,301.575 158.461 C 301.792 159.417,302.337 160.913,302.785 161.785 C 303.233 162.656,303.600 163.926,303.600 164.606 C 303.600 165.286,304.030 166.733,304.556 167.821 C 305.084 168.913,305.621 170.937,305.754 172.337 C 305.887 173.733,306.340 175.654,306.762 176.607 C 308.579 180.715,308.796 213.050,307.025 215.804 C 306.361 216.835,305.600 220.379,305.600 222.436 C 305.600 223.401,305.285 224.461,304.803 225.116 C 304.365 225.712,303.894 227.100,303.756 228.200 C 303.618 229.300,303.164 230.800,302.747 231.532 C 302.330 232.265,301.805 233.685,301.581 234.687 C 301.356 235.689,300.823 236.953,300.397 237.495 C 299.970 238.037,299.504 239.107,299.360 239.873 C 299.216 240.638,298.853 241.358,298.553 241.473 C 298.253 241.589,297.792 242.429,297.528 243.341 C 297.264 244.254,296.632 245.509,296.124 246.131 C 295.616 246.753,295.200 247.599,295.200 248.013 C 295.200 248.426,294.740 249.224,294.177 249.786 C 292.772 251.192,292.904 253.835,294.426 254.770 C 294.990 255.117,296.070 255.804,296.826 256.299 C 297.582 256.793,298.382 257.198,298.604 257.199 C 298.826 257.199,299.232 257.560,299.507 258.000 C 299.782 258.440,300.249 258.800,300.544 258.800 C 300.840 258.800,301.646 259.340,302.337 260.000 C 303.028 260.660,303.934 261.200,304.350 261.200 C 304.767 261.200,305.403 261.650,305.763 262.200 C 306.124 262.750,306.613 263.200,306.851 263.200 C 307.090 263.200,307.819 263.650,308.473 264.200 C 309.127 264.750,309.919 265.200,310.233 265.200 C 310.548 265.200,311.197 265.650,311.675 266.200 C 312.153 266.750,312.755 267.200,313.013 267.200 C 313.271 267.200,314.046 267.740,314.737 268.400 C 315.449 269.081,316.427 269.600,316.996 269.600 C 317.636 269.600,318.000 269.825,318.000 270.220 C 318.000 270.562,318.630 271.104,319.400 271.426 C 320.170 271.748,320.800 272.195,320.800 272.420 C 320.800 272.644,321.610 273.176,322.600 273.600 C 323.590 274.024,324.400 274.546,324.400 274.759 C 324.400 274.972,324.805 275.273,325.300 275.429 C 325.795 275.584,326.600 276.140,327.088 276.663 C 327.576 277.187,328.521 277.724,329.188 277.858 C 329.857 277.991,330.400 278.355,330.400 278.670 C 330.400 278.984,331.030 279.504,331.800 279.826 C 332.570 280.148,333.200 280.566,333.200 280.757 C 333.200 280.947,333.766 281.337,334.457 281.624 C 335.149 281.910,336.165 282.562,336.716 283.072 C 337.266 283.583,337.928 284.000,338.186 284.000 C 338.444 284.000,339.047 284.450,339.525 285.000 C 340.003 285.550,340.641 286.000,340.942 286.000 C 341.244 286.000,342.169 286.540,343.000 287.200 C 343.831 287.860,344.736 288.400,345.012 288.400 C 345.288 288.400,345.615 288.662,345.738 288.982 C 345.861 289.302,346.645 289.941,347.481 290.401 C 350.791 292.226,351.400 292.634,352.115 293.500 C 352.524 293.995,353.090 294.400,353.374 294.400 C 353.658 294.400,354.569 294.940,355.400 295.600 C 356.231 296.260,357.112 296.800,357.359 296.800 C 357.606 296.800,358.032 297.160,358.307 297.600 C 358.582 298.040,359.051 298.400,359.348 298.400 C 359.646 298.400,360.569 298.940,361.400 299.600 C 362.231 300.260,363.161 300.800,363.468 300.800 C 363.774 300.800,364.126 301.063,364.250 301.385 C 364.885 303.041,368.740 301.302,369.447 299.039 C 369.591 298.578,370.135 297.691,370.655 297.069 C 371.175 296.447,371.600 295.753,371.600 295.527 C 371.600 295.301,372.050 294.581,372.600 293.927 C 373.150 293.273,373.600 292.517,373.600 292.247 C 373.600 291.977,374.041 291.158,374.579 290.428 C 375.118 289.699,375.672 288.582,375.812 287.947 C 375.951 287.313,376.387 286.621,376.780 286.411 C 377.173 286.201,377.611 285.446,377.753 284.733 C 377.896 284.021,378.347 283.070,378.757 282.619 C 379.166 282.169,379.713 281.139,379.971 280.332 C 380.230 279.525,380.690 278.657,380.995 278.404 C 381.299 278.152,381.669 277.398,381.816 276.729 C 381.962 276.061,382.493 274.909,382.994 274.171 C 383.496 273.432,384.033 272.152,384.187 271.327 C 384.342 270.502,384.813 269.586,385.234 269.291 C 385.721 268.950,386.000 268.282,386.000 267.455 C 386.000 266.705,386.413 265.595,386.977 264.831 C 387.576 264.020,388.058 262.672,388.223 261.353 C 388.371 260.169,388.661 259.200,388.866 259.200 C 389.439 259.200,390.400 256.595,390.400 255.041 C 390.400 254.280,390.653 253.404,390.963 253.094 C 391.635 252.422,392.395 249.856,392.398 248.247 C 392.399 247.613,392.778 246.483,393.240 245.735 C 393.747 244.914,394.232 243.153,394.463 241.294 C 394.683 239.524,395.116 237.914,395.480 237.512 C 395.891 237.057,396.285 235.301,396.601 232.506 C 396.869 230.138,397.380 227.539,397.736 226.732 C 398.153 225.789,398.480 223.467,398.653 220.232 C 398.857 216.412,399.052 215.200,399.461 215.200 C 399.853 215.200,400.000 214.546,400.000 212.800 C 400.000 211.021,399.857 210.400,399.445 210.400 C 398.810 210.400,398.584 211.662,398.006 218.418 C 397.789 220.958,397.340 223.928,397.008 225.018 C 396.676 226.108,396.206 228.614,395.962 230.587 C 395.719 232.560,395.202 234.990,394.813 235.987 C 394.425 236.984,393.981 238.700,393.828 239.800 C 393.674 240.900,393.110 243.090,392.574 244.667 C 392.038 246.244,391.600 247.981,391.600 248.527 C 391.600 249.074,391.152 250.483,390.604 251.660 C 390.056 252.837,389.606 254.268,389.604 254.840 C 389.602 255.413,389.150 256.727,388.600 257.762 C 388.050 258.796,387.600 260.039,387.600 260.524 C 387.600 261.009,387.172 262.215,386.649 263.203 C 386.126 264.191,385.564 265.630,385.399 266.400 C 385.235 267.170,384.782 268.252,384.392 268.804 C 384.002 269.356,383.483 270.550,383.238 271.457 C 382.994 272.364,382.526 273.330,382.197 273.602 C 381.869 273.875,381.600 274.285,381.600 274.513 C 381.600 275.214,376.387 285.513,375.775 286.021 C 375.459 286.283,375.200 286.805,375.200 287.180 C 375.200 287.556,374.685 288.659,374.056 289.631 C 373.427 290.604,371.818 293.267,370.482 295.549 C 368.925 298.206,367.607 299.967,366.817 300.448 L 365.582 301.199 363.941 300.099 C 363.038 299.495,361.737 298.657,361.050 298.237 C 360.362 297.818,358.900 296.872,357.800 296.134 C 355.460 294.566,354.617 294.005,353.040 292.965 C 352.403 292.544,351.486 291.930,351.004 291.600 C 350.522 291.270,349.348 290.483,348.395 289.852 C 347.442 289.220,346.469 288.541,346.231 288.344 C 345.741 287.935,338.359 283.009,334.627 280.600 C 333.264 279.720,331.561 278.505,330.844 277.900 C 330.126 277.295,329.310 276.800,329.031 276.800 C 328.752 276.800,328.198 276.440,327.800 276.000 C 327.402 275.560,326.904 275.200,326.693 275.200 C 326.482 275.200,325.745 274.734,325.055 274.164 C 324.365 273.595,322.720 272.426,321.400 271.566 C 320.080 270.707,318.640 269.760,318.200 269.463 C 317.760 269.166,316.320 268.229,315.000 267.381 C 313.680 266.532,312.358 265.600,312.062 265.310 C 311.766 265.019,310.956 264.488,310.262 264.129 C 308.969 263.460,306.757 261.989,306.400 261.560 C 306.194 261.312,303.651 259.610,301.381 258.200 C 300.672 257.760,299.397 256.905,298.546 256.301 C 297.696 255.696,296.325 254.749,295.500 254.195 C 293.803 253.056,293.660 252.323,294.798 250.600 C 296.097 248.632,301.873 236.788,302.796 234.200 C 303.267 232.880,303.985 230.720,304.392 229.400 C 304.800 228.080,305.410 226.280,305.749 225.400 C 306.088 224.520,306.379 223.170,306.396 222.400 C 306.412 221.630,306.780 220.010,307.212 218.800 C 307.718 217.382,308.145 214.611,308.412 211.000 C 308.640 207.920,309.000 204.320,309.211 203.000 C 309.703 199.919,309.687 191.413,309.183 187.800 C 308.968 186.260,308.627 182.992,308.425 180.537 C 308.213 177.957,307.794 175.562,307.431 174.860 C 307.086 174.193,306.622 172.366,306.400 170.800 C 306.178 169.234,305.743 167.464,305.434 166.865 C 305.124 166.267,304.592 164.793,304.251 163.589 C 303.056 159.375,300.693 153.410,299.184 150.800 C 298.994 150.470,298.156 148.850,297.322 147.201 C 296.489 145.551,295.085 143.157,294.203 141.880 C 293.322 140.602,292.240 138.964,291.800 138.240 C 290.555 136.190,289.535 134.722,288.295 133.200 C 287.669 132.430,286.851 131.416,286.478 130.947 C 281.909 125.198,276.277 119.543,270.149 114.552 C 265.634 110.874,264.686 110.194,261.420 108.288 C 260.749 107.896,259.390 107.041,258.400 106.388 C 257.410 105.734,255.700 104.750,254.600 104.200 C 253.500 103.651,252.330 103.040,252.000 102.842 C 250.833 102.144,246.186 100.050,245.200 99.778 C 244.650 99.626,243.947 99.299,243.639 99.051 C 242.899 98.457,237.249 96.538,234.134 95.822 C 232.778 95.511,231.158 94.995,230.534 94.675 C 229.911 94.355,228.230 93.961,226.800 93.799 C 225.370 93.637,223.030 93.121,221.600 92.652 C 217.561 91.328,190.558 91.345,186.000 92.675 C 184.350 93.157,181.920 93.675,180.600 93.826 C 179.280 93.978,177.737 94.337,177.170 94.625 C 176.604 94.912,174.804 95.503,173.170 95.938 C 169.126 97.014,166.573 97.881,164.200 98.984 C 163.100 99.495,161.539 100.122,160.732 100.377 C 159.925 100.632,159.048 101.102,158.783 101.420 C 158.518 101.739,158.099 102.000,157.851 102.000 C 157.433 102.000,154.455 103.489,149.714 106.069 C 148.634 106.657,147.514 107.422,147.226 107.769 C 146.938 108.116,146.479 108.400,146.206 108.400 C 145.933 108.400,145.010 108.934,144.155 109.586 C 143.300 110.239,142.240 111.048,141.800 111.384 C 141.360 111.720,140.312 112.491,139.471 113.098 C 135.222 116.161,125.487 125.334,123.230 128.400 C 121.591 130.627,120.695 131.676,119.245 133.062 L 117.890 134.358 115.945 133.372 C 114.875 132.830,114.000 132.238,114.000 132.057 C 114.000 131.876,113.505 131.507,112.900 131.237 C 111.663 130.685,108.962 128.909,107.976 128.000 C 107.618 127.670,106.717 127.040,105.974 126.600 C 105.230 126.160,104.063 125.440,103.379 125.000 C 102.696 124.560,101.549 123.840,100.830 123.400 C 100.111 122.960,98.931 122.150,98.207 121.600 C 96.557 120.347,96.018 119.977,92.790 117.889 C 91.354 116.960,89.734 115.876,89.190 115.479 C 88.645 115.082,87.120 114.046,85.800 113.175 C 84.480 112.305,82.704 111.099,81.854 110.496 C 81.003 109.893,79.716 109.040,78.994 108.600 C 78.272 108.160,75.306 106.180,72.403 104.200 C 69.499 102.220,66.826 100.420,66.463 100.200 C 66.100 99.980,65.238 99.350,64.549 98.800 C 63.859 98.250,62.358 97.260,61.214 96.600 C 60.069 95.940,58.875 95.159,58.559 94.864 C 58.064 94.402,55.603 92.706,53.533 91.400 C 44.842 85.918,44.641 85.368,49.291 79.800 C 49.658 79.360,51.423 77.200,53.211 75.000 C 58.291 68.752,58.481 68.524,60.600 66.108 C 63.130 63.224,70.563 55.479,72.372 53.842 C 73.127 53.159,74.477 51.902,75.372 51.049 C 76.267 50.196,78.620 48.160,80.600 46.525 C 82.580 44.890,84.665 43.113,85.233 42.576 C 85.802 42.039,86.411 41.600,86.587 41.600 C 86.764 41.600,87.313 41.195,87.807 40.700 C 89.000 39.505,93.487 36.364,98.234 33.400 C 99.575 32.562,101.109 31.556,102.808 30.399 C 103.362 30.021,104.193 29.593,104.655 29.446 C 105.117 29.299,105.816 28.824,106.209 28.390 C 106.602 27.955,107.141 27.600,107.406 27.600 C 107.671 27.600,108.588 27.125,109.444 26.544 C 110.299 25.964,111.539 25.309,112.200 25.089 C 112.860 24.869,113.760 24.393,114.200 24.032 C 114.640 23.670,116.350 22.726,118.000 21.932 C 119.650 21.139,122.676 19.660,124.724 18.645 C 126.772 17.630,128.664 16.800,128.927 16.800 C 129.191 16.800,130.215 16.376,131.203 15.857 C 132.191 15.339,133.540 14.786,134.200 14.629 C 134.860 14.473,136.120 14.012,137.000 13.605 C 138.523 12.901,140.022 12.364,144.300 10.990 C 145.345 10.654,147.010 10.098,148.000 9.754 C 148.990 9.410,150.520 8.948,151.400 8.727 C 152.280 8.506,154.440 7.899,156.200 7.377 C 157.960 6.856,160.210 6.314,161.200 6.173 C 162.190 6.033,163.990 5.594,165.200 5.198 C 166.410 4.802,169.226 4.283,171.457 4.045 C 173.689 3.807,175.971 3.439,176.529 3.227 C 177.642 2.804,183.214 2.306,195.300 1.550 C 201.327 1.173,203.200 0.931,203.200 0.528 C 203.200 0.113,201.869 0.000,197.000 0.000 C 191.756 0.000,190.800 0.092,190.800 0.600 M206.000 0.600 C 206.000 1.062,206.516 1.200,208.241 1.200 C 210.374 1.200,215.580 1.525,227.600 2.407 C 230.570 2.625,233.650 2.984,234.446 3.205 C 235.241 3.427,237.941 3.864,240.446 4.177 C 242.950 4.490,245.662 5.026,246.470 5.366 C 247.279 5.707,248.989 6.104,250.270 6.247 C 251.552 6.391,253.500 6.854,254.600 7.277 C 255.700 7.700,257.764 8.221,259.186 8.434 C 260.609 8.647,262.179 9.087,262.675 9.412 C 263.171 9.738,264.527 10.200,265.689 10.441 C 266.850 10.682,268.340 11.188,269.000 11.567 C 269.660 11.945,271.098 12.481,272.195 12.757 C 273.292 13.033,274.407 13.439,274.672 13.660 C 274.938 13.880,276.083 14.305,277.218 14.605 C 278.352 14.904,279.577 15.414,279.940 15.737 C 280.303 16.061,281.404 16.540,282.386 16.801 C 283.368 17.063,284.607 17.620,285.140 18.039 C 285.672 18.457,286.311 18.800,286.560 18.800 C 287.021 18.800,291.713 20.923,292.800 21.623 C 293.130 21.836,294.184 22.369,295.141 22.809 C 296.099 23.248,297.338 23.965,297.895 24.404 C 298.452 24.842,299.136 25.200,299.414 25.200 C 299.692 25.200,301.063 25.918,302.460 26.796 C 303.857 27.673,305.700 28.770,306.556 29.233 C 307.412 29.695,308.312 30.238,308.556 30.438 C 309.635 31.325,313.213 33.600,313.528 33.600 C 313.720 33.600,314.218 33.978,314.637 34.441 C 315.056 34.903,315.923 35.553,316.564 35.885 C 322.913 39.168,342.304 56.503,352.000 67.565 C 353.430 69.197,354.960 70.935,355.400 71.429 C 355.840 71.922,356.740 73.068,357.400 73.975 C 358.502 75.490,362.034 80.025,363.419 81.705 C 363.739 82.092,364.000 82.524,364.000 82.665 C 364.000 82.907,365.187 84.576,367.700 87.869 C 368.305 88.661,368.800 89.462,368.800 89.648 C 368.800 89.834,369.745 91.421,370.900 93.175 C 374.025 97.921,374.702 99.057,375.013 100.075 C 375.168 100.584,375.530 101.270,375.819 101.600 C 376.107 101.930,376.720 103.010,377.181 104.000 C 377.643 104.990,378.274 106.250,378.585 106.800 C 379.821 108.989,381.200 112.015,381.200 112.539 C 381.200 112.843,381.540 113.525,381.956 114.053 C 382.372 114.582,382.948 115.821,383.237 116.807 C 383.525 117.793,384.073 119.050,384.456 119.600 C 384.838 120.150,385.359 121.410,385.613 122.400 C 385.867 123.390,386.302 124.470,386.581 124.800 C 386.859 125.130,387.304 126.300,387.570 127.400 C 387.835 128.500,388.311 129.800,388.628 130.289 C 388.945 130.777,389.405 132.127,389.651 133.289 C 389.897 134.450,390.411 136.030,390.793 136.800 C 391.175 137.570,391.593 139.135,391.722 140.278 C 391.851 141.422,392.247 142.918,392.602 143.603 C 392.956 144.289,393.493 146.233,393.796 147.925 C 394.098 149.616,394.612 151.742,394.937 152.649 C 395.262 153.556,395.728 155.941,395.972 157.948 C 396.216 159.956,396.676 162.634,396.995 163.899 C 397.313 165.165,397.759 168.180,397.987 170.600 C 398.678 177.953,398.828 178.800,399.438 178.800 C 399.863 178.800,400.000 178.167,400.000 176.200 C 400.000 174.342,399.853 173.600,399.483 173.600 C 399.108 173.600,398.846 172.098,398.523 168.100 C 398.279 165.075,397.847 162.060,397.564 161.400 C 397.281 160.740,396.844 158.400,396.595 156.200 C 396.345 154.000,395.842 151.570,395.478 150.800 C 395.114 150.030,394.629 148.066,394.400 146.435 C 394.171 144.804,393.651 142.914,393.243 142.235 C 392.836 141.556,392.397 140.043,392.267 138.873 C 392.137 137.702,391.732 136.172,391.365 135.473 C 390.999 134.773,390.547 133.305,390.360 132.212 C 390.173 131.119,389.671 129.752,389.244 129.174 C 388.817 128.596,388.343 127.295,388.191 126.282 C 388.040 125.269,387.484 123.856,386.958 123.143 C 386.431 122.429,386.000 121.364,386.000 120.776 C 386.000 120.189,385.646 119.258,385.214 118.709 C 384.782 118.160,384.267 116.990,384.069 116.110 C 383.871 115.230,383.325 114.125,382.855 113.655 C 382.385 113.185,382.000 112.375,382.000 111.856 C 382.000 111.337,381.578 110.289,381.062 109.529 C 380.546 108.769,379.992 107.618,379.832 106.973 C 379.672 106.328,379.215 105.440,378.816 105.000 C 378.418 104.560,377.961 103.750,377.800 103.200 C 377.639 102.650,377.191 101.840,376.803 101.400 C 376.416 100.960,375.878 99.912,375.609 99.072 C 375.340 98.232,374.893 97.457,374.617 97.351 C 374.340 97.245,373.876 96.437,373.585 95.555 C 373.294 94.673,372.728 93.776,372.328 93.561 C 371.928 93.347,371.600 92.900,371.600 92.567 C 371.600 92.234,371.178 91.565,370.662 91.081 C 370.146 90.596,369.604 89.710,369.457 89.111 C 369.310 88.512,368.868 87.702,368.475 87.311 C 368.081 86.920,367.409 86.083,366.980 85.450 C 365.542 83.330,364.003 81.009,363.298 79.899 C 362.914 79.293,362.285 78.696,361.900 78.572 C 361.515 78.448,361.200 78.105,361.200 77.811 C 361.200 77.517,360.573 76.494,359.807 75.538 C 359.040 74.582,358.095 73.365,357.707 72.832 C 357.318 72.300,356.505 71.373,355.900 70.772 C 355.295 70.171,354.800 69.477,354.800 69.231 C 354.800 68.984,354.364 68.584,353.831 68.341 C 353.298 68.098,352.754 67.472,352.623 66.950 C 352.492 66.427,352.113 66.000,351.780 66.000 C 351.447 66.000,351.057 65.692,350.912 65.315 C 350.768 64.939,349.770 63.724,348.696 62.615 C 343.209 56.956,339.527 53.299,338.408 52.400 C 337.724 51.850,336.947 51.166,336.682 50.881 C 336.417 50.595,335.954 50.145,335.654 49.881 C 335.353 49.616,334.638 48.905,334.065 48.300 C 333.491 47.695,332.889 47.200,332.727 47.200 C 332.565 47.200,331.480 46.304,330.316 45.208 C 327.415 42.477,327.098 42.218,325.593 41.355 C 324.869 40.940,323.809 40.182,323.238 39.672 C 322.667 39.162,321.930 38.503,321.600 38.209 C 320.405 37.143,316.809 34.800,316.367 34.800 C 316.119 34.800,315.561 34.350,315.129 33.800 C 314.696 33.250,314.116 32.800,313.841 32.800 C 313.565 32.800,312.925 32.359,312.419 31.821 C 311.914 31.282,310.981 30.728,310.346 30.588 C 309.712 30.449,309.016 30.004,308.800 29.600 C 308.584 29.196,307.865 28.746,307.203 28.601 C 306.541 28.455,306.000 28.161,306.000 27.946 C 306.000 27.731,305.190 27.197,304.200 26.759 C 303.210 26.321,302.400 25.798,302.400 25.597 C 302.400 25.396,301.635 25.010,300.700 24.737 C 299.765 24.465,298.604 23.828,298.119 23.321 C 297.635 22.815,296.905 22.400,296.497 22.400 C 296.089 22.400,295.158 21.959,294.428 21.421 C 293.699 20.882,292.565 20.324,291.910 20.180 C 291.255 20.036,290.402 19.602,290.014 19.214 C 289.627 18.827,288.616 18.379,287.768 18.220 C 286.921 18.061,285.986 17.587,285.692 17.167 C 285.396 16.745,284.454 16.290,283.589 16.152 C 282.727 16.014,281.442 15.473,280.733 14.951 C 280.015 14.421,278.883 14.000,278.176 14.000 C 277.479 14.000,276.448 13.638,275.885 13.196 C 275.323 12.753,273.934 12.215,272.800 12.000 C 271.666 11.785,270.298 11.263,269.761 10.841 C 269.224 10.419,267.843 9.947,266.692 9.793 C 265.542 9.640,264.300 9.249,263.932 8.924 C 263.565 8.600,261.945 8.140,260.332 7.902 C 258.720 7.664,257.127 7.239,256.794 6.958 C 256.061 6.339,253.122 5.626,251.200 5.601 C 250.430 5.591,248.990 5.211,248.000 4.758 C 246.880 4.245,244.690 3.792,242.200 3.559 C 240.000 3.354,237.502 2.911,236.649 2.576 C 235.351 2.065,226.600 1.255,221.900 1.210 C 221.194 1.204,220.800 0.985,220.800 0.600 C 220.800 0.088,219.711 0.000,213.400 0.000 C 207.089 0.000,206.000 0.088,206.000 0.600 M33.000 99.475 C 31.814 100.512,30.432 102.498,29.604 104.356 C 29.369 104.881,28.745 105.825,28.216 106.453 C 27.688 107.082,27.132 108.002,26.980 108.498 C 26.829 108.994,26.470 109.670,26.183 110.000 C 25.895 110.330,25.086 111.680,24.384 113.000 C 20.138 120.986,18.800 123.657,18.800 124.144 C 18.800 124.446,18.451 125.136,18.025 125.678 C 17.598 126.220,17.127 127.189,16.977 127.832 C 16.828 128.474,16.298 129.720,15.801 130.600 C 15.304 131.480,14.766 132.830,14.605 133.600 C 14.445 134.370,13.997 135.540,13.611 136.200 C 13.224 136.860,12.710 138.210,12.468 139.200 C 12.226 140.190,11.662 141.713,11.214 142.585 C 10.766 143.456,10.398 144.626,10.396 145.185 C 10.394 145.743,9.944 147.163,9.396 148.340 C 8.848 149.517,8.400 150.926,8.400 151.473 C 8.400 152.019,7.964 153.756,7.432 155.333 C 6.900 156.910,6.338 159.010,6.183 160.000 C 6.029 160.990,5.586 162.610,5.199 163.600 C 4.813 164.590,4.371 166.570,4.217 168.000 C 4.063 169.430,3.590 172.130,3.167 174.000 C 2.575 176.614,1.229 186.560,1.204 188.500 C 1.202 188.665,0.930 188.800,0.600 188.800 C 0.076 188.800,0.000 191.022,0.000 206.400 C 0.000 221.084,0.091 224.000,0.551 224.000 C 1.117 224.000,1.720 227.255,2.189 232.846 C 2.311 234.301,2.750 236.821,3.163 238.446 C 3.577 240.071,4.037 242.562,4.187 243.983 C 4.336 245.403,4.728 247.203,5.059 247.983 C 5.389 248.762,5.905 250.784,6.206 252.475 C 6.507 254.167,7.027 256.078,7.360 256.722 C 7.693 257.366,8.142 258.952,8.358 260.247 C 8.574 261.541,9.122 263.313,9.575 264.185 C 10.029 265.056,10.400 266.228,10.400 266.788 C 10.400 267.348,10.828 268.615,11.351 269.603 C 11.874 270.591,12.438 272.030,12.604 272.800 C 12.771 273.570,13.243 274.827,13.653 275.594 C 14.064 276.361,14.401 277.261,14.402 277.594 C 14.402 277.927,14.942 279.280,15.600 280.600 C 16.258 281.920,16.798 283.280,16.798 283.622 C 16.799 283.965,17.250 284.855,17.800 285.600 C 18.350 286.345,18.800 287.190,18.800 287.477 C 18.800 287.763,19.993 290.293,21.452 293.099 C 24.763 299.466,26.081 301.814,28.927 306.411 C 29.407 307.187,30.160 308.416,30.600 309.142 C 32.426 312.157,33.998 314.554,34.289 314.770 C 34.460 314.896,35.313 316.080,36.185 317.400 C 37.057 318.720,38.632 320.814,39.685 322.054 C 40.738 323.294,41.600 324.437,41.600 324.594 C 41.600 325.874,56.981 342.192,64.792 349.200 C 69.844 353.732,70.280 354.104,72.042 355.400 C 72.939 356.060,74.115 357.005,74.655 357.500 C 75.195 357.995,75.739 358.400,75.865 358.400 C 75.991 358.400,76.687 358.895,77.412 359.500 C 78.136 360.105,79.382 361.050,80.181 361.600 C 80.979 362.150,82.248 363.050,83.000 363.600 C 85.245 365.242,86.897 366.367,88.800 367.549 C 89.790 368.164,91.486 369.237,92.569 369.934 C 93.651 370.630,94.754 371.200,95.020 371.200 C 95.285 371.200,95.747 371.495,96.045 371.855 C 96.344 372.215,97.314 372.820,98.200 373.200 C 99.086 373.580,100.056 374.185,100.355 374.545 C 100.653 374.905,101.212 375.200,101.595 375.200 C 101.978 375.200,102.721 375.526,103.246 375.925 C 103.771 376.324,105.041 376.964,106.068 377.346 C 107.096 377.729,108.153 378.303,108.417 378.621 C 108.682 378.939,109.098 379.200,109.343 379.200 C 109.768 379.200,111.224 379.851,116.600 382.443 C 117.920 383.080,119.215 383.600,119.479 383.600 C 119.742 383.600,120.804 384.050,121.838 384.600 C 122.873 385.150,124.007 385.606,124.360 385.613 C 124.712 385.619,125.900 386.068,127.000 386.609 C 128.100 387.150,129.451 387.594,130.003 387.596 C 130.555 387.598,131.815 388.026,132.803 388.546 C 133.791 389.066,135.320 389.622,136.200 389.782 C 137.080 389.942,138.520 390.399,139.400 390.799 C 140.280 391.198,141.900 391.656,143.000 391.816 C 144.100 391.976,145.810 392.422,146.800 392.807 C 147.790 393.193,149.873 393.706,151.429 393.947 C 152.984 394.188,155.054 394.670,156.029 395.019 C 157.003 395.368,159.401 395.822,161.358 396.029 C 163.316 396.236,165.926 396.679,167.158 397.013 C 174.528 399.008,212.418 399.127,220.103 397.179 C 221.810 396.747,224.780 396.226,226.703 396.023 C 228.626 395.820,230.997 395.368,231.971 395.019 C 232.946 394.670,235.016 394.192,236.571 393.956 C 238.127 393.720,240.203 393.176,241.185 392.748 C 242.166 392.320,244.056 391.864,245.385 391.735 C 246.713 391.606,248.340 391.254,249.000 390.952 C 249.660 390.651,251.370 390.059,252.800 389.637 C 255.920 388.717,258.763 387.741,261.200 386.754 C 262.190 386.353,263.810 385.823,264.800 385.575 C 265.790 385.328,266.870 384.886,267.200 384.594 C 267.530 384.302,268.340 383.933,269.000 383.776 C 269.660 383.618,271.190 382.975,272.400 382.346 C 273.610 381.716,274.762 381.201,274.960 381.201 C 275.333 381.200,279.043 379.522,280.800 378.560 C 281.350 378.259,282.655 377.626,283.700 377.153 C 284.745 376.680,285.600 376.151,285.600 375.978 C 285.600 375.804,286.275 375.445,287.100 375.180 C 287.925 374.916,288.870 374.487,289.200 374.229 C 289.530 373.971,290.970 373.070,292.400 372.228 C 293.830 371.386,295.630 370.297,296.400 369.809 C 300.886 366.965,302.684 365.755,303.375 365.117 C 303.802 364.723,304.316 364.400,304.518 364.400 C 304.916 364.400,306.459 363.231,310.853 359.601 C 311.652 358.940,312.428 358.400,312.577 358.400 C 312.830 358.400,318.681 353.492,324.845 348.110 C 326.300 346.839,327.830 345.508,328.245 345.152 C 329.720 343.887,335.498 337.755,338.001 334.800 C 339.398 333.150,340.758 331.620,341.022 331.400 C 341.989 330.596,350.900 319.513,352.718 316.854 C 354.739 313.899,354.349 313.119,349.226 309.871 C 348.470 309.392,347.462 308.730,346.986 308.400 C 346.114 307.797,345.050 307.087,343.200 305.877 C 342.650 305.517,341.300 304.592,340.200 303.822 C 339.100 303.052,337.705 302.215,337.100 301.962 C 336.495 301.710,336.000 301.342,336.000 301.145 C 336.000 300.948,335.370 300.487,334.600 300.119 C 333.830 299.752,333.200 299.309,333.200 299.134 C 333.200 298.959,332.484 298.451,331.609 298.005 C 330.734 297.558,329.249 296.649,328.309 295.985 C 326.668 294.826,322.900 292.274,321.557 291.412 C 321.204 291.186,320.145 290.460,319.204 289.800 C 318.263 289.140,316.819 288.150,315.996 287.600 C 315.173 287.050,313.982 286.254,313.350 285.830 C 312.717 285.407,311.300 284.461,310.200 283.727 C 309.100 282.994,307.840 282.153,307.400 281.858 C 306.698 281.389,303.789 279.451,301.400 277.862 C 300.960 277.569,300.078 276.985,299.440 276.565 C 298.803 276.144,297.896 275.530,297.426 275.200 C 296.956 274.870,295.975 274.240,295.246 273.800 C 294.517 273.360,292.761 272.146,291.345 271.103 C 289.929 270.059,288.277 268.950,287.673 268.638 C 287.069 268.325,285.648 267.199,284.515 266.135 C 282.013 263.785,279.635 262.000,279.005 262.000 C 278.749 262.000,278.117 261.550,277.600 261.000 C 277.083 260.450,276.493 260.000,276.288 260.000 C 276.083 260.000,275.381 259.550,274.727 259.000 C 274.073 258.450,273.281 258.000,272.967 258.000 C 272.652 258.000,272.003 257.550,271.525 257.000 C 271.047 256.450,270.446 256.000,270.190 256.000 C 269.934 256.000,269.410 255.653,269.026 255.228 C 268.642 254.804,267.698 254.158,266.928 253.793 C 266.158 253.427,265.230 252.863,264.864 252.539 C 263.382 251.224,261.084 249.617,260.352 249.385 C 259.924 249.249,259.138 248.702,258.605 248.169 C 258.072 247.636,257.358 247.200,257.018 247.200 C 256.678 247.200,256.400 247.010,256.400 246.778 C 256.400 246.545,255.590 245.997,254.600 245.559 C 253.610 245.121,252.800 244.596,252.800 244.392 C 252.800 244.187,252.215 243.721,251.500 243.354 C 250.785 242.988,250.110 242.559,250.000 242.400 C 249.890 242.241,249.205 241.807,248.479 241.435 C 247.752 241.062,246.852 240.485,246.479 240.153 C 245.364 239.159,243.083 237.646,241.768 237.026 C 241.091 236.707,240.304 236.166,240.019 235.823 C 239.735 235.480,239.323 235.200,239.104 235.200 C 238.885 235.200,238.123 234.705,237.412 234.100 C 236.700 233.495,235.513 232.640,234.773 232.200 C 234.033 231.760,233.050 231.130,232.588 230.800 C 230.534 229.333,228.965 228.403,228.543 228.401 C 228.291 228.401,227.979 228.121,227.848 227.781 C 227.717 227.441,227.068 226.973,226.405 226.742 C 225.742 226.511,225.200 226.149,225.200 225.938 C 225.200 225.728,224.404 225.203,223.432 224.773 C 222.459 224.343,221.604 223.824,221.532 223.619 C 221.335 223.064,218.829 221.313,216.900 220.383 C 215.965 219.932,215.200 219.413,215.200 219.230 C 215.200 219.047,214.660 218.673,214.000 218.400 C 213.340 218.127,212.800 217.735,212.800 217.529 C 212.800 217.323,212.024 216.812,211.075 216.392 C 210.126 215.972,209.019 215.263,208.613 214.815 C 208.208 214.367,207.662 214.000,207.400 214.000 C 207.138 214.000,206.604 213.647,206.214 213.215 C 205.823 212.783,204.895 212.229,204.152 211.984 C 203.408 211.739,202.800 211.285,202.800 210.977 C 202.800 210.668,202.346 210.301,201.791 210.162 C 201.236 210.023,200.561 209.605,200.291 209.234 C 200.021 208.863,199.192 208.312,198.448 208.010 C 197.705 207.707,196.693 207.087,196.199 206.630 C 195.154 205.663,193.473 204.495,190.400 202.600 C 189.190 201.854,187.930 200.980,187.600 200.658 C 187.270 200.336,186.460 199.834,185.800 199.543 C 185.140 199.251,184.365 198.695,184.077 198.306 C 183.790 197.918,183.321 197.600,183.036 197.600 C 182.750 197.600,182.066 197.183,181.516 196.672 C 180.965 196.162,179.949 195.510,179.257 195.224 C 178.566 194.937,178.000 194.549,178.000 194.362 C 178.000 194.174,177.450 193.736,176.779 193.389 C 176.107 193.042,175.235 192.452,174.841 192.079 C 174.448 191.705,173.518 191.040,172.777 190.600 C 171.319 189.736,170.239 189.007,168.749 187.885 C 167.170 186.696,164.218 184.815,163.918 184.807 C 163.763 184.803,163.212 184.395,162.693 183.900 C 162.174 183.405,161.140 182.640,160.394 182.200 C 159.649 181.760,158.670 181.183,158.219 180.918 C 157.769 180.653,157.040 180.151,156.600 179.803 C 155.169 178.669,153.022 177.228,152.000 176.715 C 151.450 176.438,150.765 175.895,150.477 175.506 C 150.190 175.118,149.706 174.800,149.402 174.800 C 149.098 174.800,148.258 174.260,147.536 173.600 C 146.813 172.940,145.991 172.400,145.708 172.400 C 145.426 172.400,144.803 171.950,144.325 171.400 C 143.847 170.850,143.246 170.400,142.989 170.400 C 142.732 170.400,142.090 170.019,141.561 169.553 C 141.033 169.087,140.101 168.528,139.492 168.311 C 138.882 168.094,138.201 167.575,137.977 167.158 C 137.754 166.741,137.377 166.400,137.139 166.400 C 136.901 166.400,136.091 165.860,135.339 165.200 C 134.587 164.540,133.625 164.000,133.200 164.000 C 132.776 164.000,132.249 163.665,132.029 163.255 C 131.810 162.845,131.084 162.283,130.415 162.006 C 129.747 161.729,129.200 161.338,129.200 161.137 C 129.200 160.936,128.390 160.424,127.400 160.000 C 126.410 159.576,125.600 159.054,125.600 158.841 C 125.600 158.628,125.260 158.346,124.845 158.214 C 124.429 158.082,123.601 157.522,123.005 156.969 C 122.408 156.416,121.398 155.860,120.760 155.732 C 120.122 155.604,119.600 155.243,119.600 154.930 C 119.600 154.616,118.982 154.101,118.227 153.786 C 117.472 153.470,116.743 153.032,116.607 152.811 C 116.471 152.591,114.973 151.744,113.280 150.930 C 111.586 150.115,108.616 148.358,106.680 147.025 C 104.743 145.691,102.551 144.234,101.807 143.787 C 101.063 143.339,100.113 142.664,99.696 142.287 C 99.278 141.909,98.834 141.600,98.709 141.600 C 98.583 141.600,97.428 140.874,96.140 139.986 C 94.853 139.098,92.720 137.669,91.400 136.809 C 90.080 135.949,88.421 134.830,87.712 134.323 C 83.997 131.661,78.627 128.019,77.200 127.195 C 76.430 126.750,74.990 125.763,74.000 125.002 C 73.010 124.240,71.637 123.362,70.949 123.050 C 70.261 122.737,69.579 122.289,69.433 122.053 C 69.287 121.818,67.150 120.270,64.684 118.613 C 62.218 116.956,59.840 115.358,59.400 115.062 C 58.960 114.765,57.544 113.820,56.254 112.961 C 54.964 112.103,53.256 110.966,52.460 110.435 C 51.664 109.904,50.772 109.229,50.478 108.935 C 50.184 108.641,49.708 108.400,49.420 108.400 C 49.133 108.400,48.657 108.110,48.363 107.755 C 48.068 107.401,46.741 106.419,45.414 105.574 C 44.086 104.730,42.460 103.660,41.800 103.198 C 41.140 102.735,39.610 101.741,38.400 100.989 C 37.190 100.237,35.848 99.347,35.419 99.011 C 34.421 98.231,34.423 98.230,33.000 99.475 M115.465 153.633 C 116.381 154.275,117.295 154.800,117.496 154.800 C 117.696 154.800,118.283 155.250,118.800 155.800 C 119.317 156.350,119.933 156.803,120.170 156.807 C 120.677 156.816,123.853 158.858,125.000 159.913 C 125.440 160.318,126.250 160.863,126.800 161.124 C 127.350 161.385,128.610 162.227,129.600 162.995 C 130.590 163.763,132.075 164.682,132.900 165.039 C 133.725 165.395,134.400 165.843,134.400 166.033 C 134.400 166.224,134.950 166.664,135.621 167.011 C 136.293 167.358,137.148 167.919,137.521 168.258 C 137.895 168.596,139.190 169.475,140.400 170.211 C 141.610 170.947,142.960 171.830,143.400 172.171 C 145.137 173.521,147.049 174.817,148.010 175.296 C 148.565 175.573,149.375 176.127,149.810 176.526 C 150.995 177.615,153.237 179.117,154.700 179.802 C 155.415 180.137,156.000 180.555,156.000 180.731 C 156.000 180.908,156.630 181.352,157.400 181.719 C 158.170 182.087,158.800 182.543,158.800 182.733 C 158.800 182.923,159.520 183.403,160.400 183.800 C 161.280 184.197,162.000 184.683,162.000 184.881 C 162.000 185.079,162.630 185.504,163.400 185.826 C 164.170 186.148,164.800 186.555,164.800 186.731 C 164.800 186.908,165.475 187.373,166.300 187.765 C 167.125 188.157,168.070 188.733,168.400 189.044 C 168.730 189.356,169.907 190.193,171.016 190.905 C 172.125 191.617,173.385 192.429,173.816 192.709 C 174.247 192.989,175.169 193.583,175.864 194.028 C 176.560 194.473,177.223 195.083,177.338 195.383 C 177.453 195.684,178.190 196.161,178.974 196.445 C 179.758 196.729,180.400 197.100,180.400 197.270 C 180.400 197.440,180.950 197.864,181.621 198.211 C 182.293 198.558,183.165 199.148,183.559 199.521 C 183.952 199.895,184.874 200.560,185.606 201.000 C 186.904 201.780,188.016 202.480,190.824 204.284 C 191.581 204.770,192.620 205.535,193.134 205.984 C 193.648 206.433,194.252 206.800,194.476 206.800 C 194.701 206.800,195.383 207.205,195.992 207.700 C 196.601 208.195,197.701 208.960,198.436 209.400 C 199.918 210.287,201.027 211.039,202.451 212.122 C 203.544 212.952,207.855 215.817,209.814 217.013 C 210.547 217.461,211.473 218.115,211.873 218.466 C 212.273 218.818,213.005 219.229,213.500 219.380 C 213.995 219.530,214.400 219.818,214.400 220.019 C 214.400 220.220,215.075 220.751,215.900 221.199 C 216.725 221.647,218.210 222.640,219.200 223.405 C 220.190 224.171,221.430 224.983,221.956 225.210 C 222.481 225.437,223.440 226.067,224.086 226.611 C 224.733 227.155,225.507 227.600,225.808 227.600 C 226.109 227.600,226.590 227.933,226.877 228.340 C 227.165 228.748,228.030 229.403,228.800 229.796 C 229.570 230.190,230.290 230.641,230.400 230.800 C 230.510 230.959,231.140 231.387,231.800 231.752 C 232.460 232.117,233.810 233.043,234.800 233.808 C 235.790 234.574,237.050 235.419,237.600 235.685 C 238.150 235.951,239.072 236.536,239.650 236.984 C 240.227 237.433,241.301 238.160,242.036 238.600 C 242.771 239.040,243.745 239.670,244.200 240.000 C 244.655 240.330,245.624 240.960,246.352 241.400 C 247.081 241.840,248.314 242.695,249.093 243.300 C 249.872 243.905,250.761 244.400,251.068 244.400 C 251.374 244.400,251.732 244.678,251.862 245.017 C 251.992 245.356,252.812 246.031,253.684 246.517 C 254.555 247.003,255.809 247.700,256.469 248.066 C 257.129 248.433,257.969 249.023,258.335 249.378 C 259.362 250.373,261.661 251.929,263.100 252.602 C 263.815 252.937,264.400 253.386,264.400 253.600 C 264.400 253.814,264.985 254.263,265.700 254.598 C 266.888 255.154,268.507 256.218,270.600 257.819 C 272.508 259.278,274.291 260.436,275.500 261.002 C 276.215 261.337,276.800 261.786,276.800 262.000 C 276.800 262.214,277.385 262.666,278.100 263.004 C 282.165 264.927,283.135 266.458,281.717 268.714 C 279.548 272.166,271.582 280.703,266.000 285.560 C 264.570 286.804,262.885 288.292,262.255 288.866 C 260.271 290.673,259.673 291.140,258.521 291.787 C 257.905 292.133,256.590 293.046,255.600 293.816 C 254.610 294.585,253.080 295.589,252.200 296.045 C 251.320 296.501,249.700 297.390,248.600 298.019 C 247.500 298.649,245.973 299.462,245.207 299.827 C 244.440 300.191,243.381 300.829,242.853 301.244 C 242.324 301.660,241.638 302.000,241.327 302.000 C 241.016 302.000,240.005 302.375,239.081 302.833 C 238.156 303.291,236.500 303.938,235.400 304.272 C 234.300 304.605,233.130 305.111,232.800 305.395 C 232.470 305.680,231.390 306.044,230.400 306.204 C 229.410 306.365,227.923 306.839,227.096 307.258 C 226.268 307.678,224.288 308.186,222.696 308.388 C 221.103 308.591,219.120 309.040,218.289 309.388 C 217.458 309.736,214.578 310.192,211.889 310.402 C 209.200 310.612,205.044 310.973,202.654 311.204 C 199.615 311.498,196.848 311.498,193.454 311.204 C 190.784 310.973,186.620 310.610,184.200 310.398 C 181.780 310.186,178.769 309.649,177.510 309.206 C 176.250 308.763,174.490 308.400,173.598 308.400 C 172.706 308.400,170.946 307.973,169.688 307.451 C 168.430 306.929,166.680 306.374,165.800 306.217 C 164.920 306.061,163.660 305.607,163.000 305.210 C 162.340 304.812,161.170 304.354,160.400 304.193 C 159.630 304.032,158.370 303.574,157.600 303.175 C 156.830 302.777,154.760 301.797,153.000 300.997 C 151.240 300.198,149.530 299.384,149.200 299.188 C 148.870 298.992,147.160 298.008,145.400 297.003 C 143.640 295.997,141.120 294.379,139.800 293.407 C 138.480 292.436,137.254 291.631,137.075 291.620 C 134.741 291.474,115.623 271.958,112.762 266.800 C 112.335 266.030,111.188 264.320,110.213 263.000 C 109.238 261.680,108.431 260.292,108.420 259.916 C 108.409 259.539,108.071 258.909,107.669 258.516 C 107.268 258.122,106.698 257.170,106.404 256.400 C 106.109 255.630,105.633 254.721,105.345 254.380 C 105.057 254.039,104.552 252.998,104.223 252.066 C 103.894 251.134,103.350 249.978,103.013 249.497 C 102.676 249.016,102.399 248.347,102.398 248.011 C 102.398 247.675,101.858 246.320,101.200 245.000 C 100.542 243.680,100.002 242.171,100.002 241.647 C 100.001 241.123,99.650 240.129,99.223 239.438 C 98.796 238.747,98.269 237.105,98.052 235.791 C 97.835 234.476,97.368 232.595,97.015 231.612 C 96.662 230.628,96.189 228.032,95.965 225.842 C 95.740 223.652,95.264 220.676,94.906 219.230 C 93.970 215.440,93.979 201.845,94.921 197.400 C 95.293 195.640,95.776 192.460,95.993 190.333 C 96.210 188.206,96.573 186.046,96.800 185.533 C 97.027 185.020,97.559 183.070,97.982 181.200 C 98.912 177.086,100.150 173.290,101.440 170.594 C 101.968 169.491,102.400 168.383,102.400 168.131 C 102.400 167.697,104.062 164.080,104.850 162.800 C 105.053 162.470,105.646 161.293,106.168 160.184 C 106.689 159.075,107.405 157.928,107.758 157.635 C 108.111 157.342,108.400 156.794,108.400 156.417 C 108.400 156.040,109.060 154.884,109.867 153.849 C 111.582 151.647,112.575 151.609,115.465 153.633 " stroke="none" fill="#b3dbfb" fill-rule="evenodd" />
		<path id="path1" d="M187.493 2.189 C 182.924 2.478,178.064 3.001,176.693 3.352 C 175.322 3.702,172.554 4.173,170.541 4.397 C 168.529 4.622,166.112 5.078,165.170 5.411 C 164.228 5.743,162.184 6.208,160.629 6.444 C 159.073 6.680,157.070 7.191,156.178 7.580 C 155.287 7.968,153.671 8.419,152.588 8.581 C 151.505 8.743,149.956 9.214,149.146 9.628 C 148.336 10.041,146.892 10.499,145.937 10.646 C 144.982 10.793,143.391 11.338,142.403 11.857 C 141.415 12.375,140.245 12.802,139.803 12.804 C 139.361 12.806,138.080 13.236,136.955 13.760 C 135.830 14.284,134.300 14.846,133.555 15.008 C 132.810 15.171,131.771 15.641,131.246 16.052 C 130.721 16.463,130.001 16.801,129.646 16.803 C 129.291 16.805,127.022 17.795,124.605 19.003 C 122.187 20.211,120.006 21.200,119.759 21.200 C 119.511 21.200,118.879 21.534,118.354 21.942 C 117.829 22.350,116.747 22.897,115.948 23.157 C 115.150 23.417,114.177 23.983,113.786 24.415 C 113.396 24.847,112.789 25.203,112.438 25.207 C 112.087 25.211,111.008 25.751,110.040 26.407 C 109.072 27.063,108.059 27.600,107.789 27.600 C 107.519 27.600,107.051 27.898,106.749 28.261 C 106.447 28.625,105.750 29.121,105.200 29.363 C 103.624 30.057,100.214 32.137,100.063 32.496 C 99.988 32.675,99.197 33.193,98.307 33.648 C 97.416 34.102,96.488 34.640,96.244 34.844 C 96.000 35.047,95.209 35.616,94.487 36.107 C 90.184 39.034,88.375 40.348,86.507 41.905 C 85.356 42.864,83.469 44.360,82.312 45.229 C 77.123 49.129,60.139 65.986,58.634 68.733 C 58.433 69.100,58.143 69.490,57.991 69.600 C 57.646 69.849,54.941 73.055,53.600 74.807 C 53.050 75.525,52.206 76.582,51.725 77.156 C 45.858 84.151,45.294 85.659,47.900 87.381 C 48.725 87.927,50.120 88.918,51.000 89.585 C 51.880 90.252,53.140 91.076,53.800 91.416 C 55.402 92.242,57.612 93.791,58.614 94.789 C 59.062 95.235,59.583 95.600,59.773 95.600 C 60.225 95.600,64.294 98.305,64.610 98.816 C 64.744 99.034,65.427 99.477,66.127 99.800 C 66.827 100.124,68.210 101.021,69.200 101.795 C 70.190 102.568,71.450 103.424,72.000 103.697 C 73.106 104.246,76.245 106.467,77.234 107.401 C 77.582 107.731,78.008 108.000,78.180 108.000 C 78.352 108.000,79.750 108.855,81.287 109.900 C 84.137 111.837,85.065 112.461,86.940 113.700 C 87.523 114.085,88.477 114.715,89.060 115.100 C 90.919 116.328,91.832 116.947,95.400 119.400 C 97.321 120.720,99.573 122.250,100.406 122.800 C 102.069 123.898,106.138 126.611,107.400 127.463 C 107.840 127.760,109.280 128.709,110.600 129.572 C 111.920 130.435,113.529 131.559,114.177 132.070 C 117.304 134.541,118.287 134.328,121.252 130.534 C 122.213 129.303,123.450 127.790,124.000 127.170 C 124.550 126.551,125.198 125.809,125.439 125.522 C 126.633 124.102,136.870 114.621,138.024 113.866 C 140.806 112.046,143.533 110.029,144.702 108.926 C 144.979 108.666,145.609 108.329,146.102 108.179 C 146.596 108.028,147.327 107.618,147.727 107.266 C 149.189 105.981,158.849 100.911,162.400 99.565 C 163.170 99.273,164.012 98.827,164.271 98.575 C 164.530 98.322,165.822 97.903,167.142 97.643 C 168.463 97.383,169.601 96.997,169.672 96.785 C 169.743 96.572,171.120 96.123,172.733 95.787 C 174.346 95.451,176.056 94.921,176.533 94.611 C 177.010 94.300,178.851 93.864,180.625 93.643 C 182.399 93.422,184.739 92.917,185.825 92.521 C 188.774 91.445,218.728 91.426,221.800 92.498 C 222.900 92.882,225.226 93.376,226.968 93.597 C 228.711 93.817,230.518 94.248,230.985 94.553 C 231.451 94.859,232.905 95.328,234.216 95.597 C 235.527 95.866,237.355 96.426,238.278 96.843 C 239.201 97.259,240.281 97.601,240.678 97.602 C 241.075 97.602,242.480 98.142,243.800 98.800 C 245.120 99.458,246.401 99.998,246.646 99.998 C 246.891 99.999,247.528 100.343,248.060 100.761 C 248.593 101.180,249.779 101.725,250.697 101.972 C 251.615 102.219,252.471 102.592,252.600 102.799 C 252.728 103.007,253.591 103.554,254.517 104.014 C 257.428 105.460,259.475 106.644,260.611 107.537 C 261.214 108.012,261.880 108.400,262.091 108.400 C 262.301 108.400,262.998 108.805,263.640 109.300 C 265.742 110.922,268.185 112.776,269.000 113.367 C 273.969 116.973,280.285 123.142,285.620 129.600 C 289.391 134.164,290.259 135.320,291.800 137.821 C 292.240 138.536,293.312 140.173,294.181 141.460 C 295.051 142.747,296.539 145.330,297.488 147.200 C 298.437 149.070,299.378 150.870,299.580 151.200 C 300.416 152.571,302.400 157.106,302.400 157.647 C 302.400 157.968,302.768 158.944,303.218 159.815 C 303.667 160.687,304.229 162.300,304.467 163.400 C 304.704 164.500,305.213 166.030,305.598 166.800 C 305.982 167.570,306.428 169.273,306.588 170.585 C 306.748 171.897,307.196 173.787,307.583 174.785 C 307.970 175.783,308.406 178.310,308.552 180.400 C 308.698 182.490,309.077 185.640,309.394 187.400 C 310.076 191.178,310.164 197.954,309.577 201.570 C 309.348 202.983,308.918 207.140,308.622 210.808 C 308.279 215.063,307.862 217.907,307.470 218.664 C 307.133 219.317,306.736 221.009,306.588 222.425 C 306.440 223.841,306.001 225.636,305.612 226.413 C 305.222 227.190,304.708 228.720,304.469 229.813 C 304.231 230.906,303.667 232.513,303.218 233.385 C 302.768 234.256,302.400 235.357,302.400 235.831 C 302.400 236.304,302.040 237.150,301.600 237.709 C 301.160 238.269,300.800 238.886,300.800 239.081 C 300.800 239.643,295.661 249.669,294.998 250.403 C 293.920 251.593,294.233 253.434,295.609 254.004 C 296.275 254.279,296.950 254.716,297.109 254.973 C 297.269 255.231,297.965 255.792,298.655 256.221 C 301.720 258.124,305.100 260.412,306.255 261.364 C 306.945 261.934,307.682 262.400,307.893 262.400 C 308.104 262.400,308.602 262.760,309.000 263.200 C 309.398 263.640,309.960 264.000,310.248 264.000 C 310.536 264.000,311.363 264.500,312.086 265.112 C 312.809 265.723,314.120 266.683,315.000 267.244 C 322.312 271.912,324.310 273.251,325.042 273.971 C 325.505 274.427,326.027 274.800,326.201 274.800 C 326.633 274.800,330.705 277.523,331.010 278.015 C 331.144 278.233,331.917 278.773,332.727 279.215 C 334.847 280.372,336.988 281.721,337.638 282.308 C 338.238 282.850,345.986 288.057,348.211 289.413 C 348.945 289.861,349.887 290.536,350.304 290.913 C 350.722 291.291,351.215 291.600,351.400 291.600 C 351.585 291.600,352.078 291.909,352.496 292.287 C 352.913 292.664,353.857 293.339,354.595 293.787 C 356.324 294.836,360.315 297.493,361.600 298.451 C 362.150 298.861,363.285 299.566,364.122 300.017 L 365.643 300.838 367.001 299.999 C 367.748 299.538,368.484 298.764,368.637 298.280 C 368.790 297.796,369.339 296.843,369.858 296.162 C 370.376 295.481,370.800 294.739,370.800 294.511 C 370.800 294.284,371.080 293.865,371.423 293.581 C 371.766 293.296,372.314 292.422,372.642 291.637 C 372.970 290.853,373.570 289.848,373.976 289.405 C 374.382 288.962,374.840 288.003,374.995 287.273 C 375.149 286.543,375.520 285.852,375.818 285.738 C 376.117 285.623,376.573 284.870,376.831 284.065 C 377.090 283.259,377.526 282.330,377.801 282.000 C 378.408 281.272,381.200 275.469,381.200 274.936 C 381.200 274.727,381.650 273.945,382.200 273.200 C 382.750 272.455,383.200 271.470,383.200 271.011 C 383.200 270.553,383.515 269.735,383.900 269.193 C 384.561 268.264,385.467 265.971,386.979 261.400 C 387.343 260.300,387.976 258.762,388.385 257.982 C 388.794 257.203,389.318 255.542,389.549 254.292 C 389.780 253.041,390.253 251.586,390.599 251.057 C 390.946 250.529,391.410 248.971,391.632 247.595 C 391.853 246.219,392.293 244.595,392.608 243.985 C 392.923 243.375,393.385 241.555,393.635 239.938 C 393.884 238.322,394.349 236.494,394.667 235.876 C 394.985 235.258,395.485 232.808,395.779 230.432 C 396.072 228.055,396.521 225.721,396.776 225.244 C 397.031 224.767,397.498 221.637,397.813 218.289 C 398.571 210.228,398.754 209.200,399.435 209.200 C 399.911 209.200,400.000 206.879,400.000 194.400 C 400.000 181.879,399.913 179.600,399.432 179.600 C 398.817 179.600,398.547 178.618,398.224 175.200 C 397.504 167.578,397.063 164.113,396.734 163.488 C 396.528 163.097,396.109 160.757,395.802 158.288 C 395.495 155.820,394.983 153.170,394.664 152.400 C 394.345 151.630,393.887 149.720,393.647 148.154 C 393.406 146.589,392.851 144.519,392.414 143.554 C 391.976 142.590,391.612 141.170,391.605 140.400 C 391.598 139.630,391.174 138.100,390.662 137.000 C 390.151 135.900,389.607 134.217,389.455 133.260 C 389.302 132.303,388.832 130.863,388.409 130.060 C 387.987 129.257,387.375 127.790,387.050 126.800 C 385.718 122.739,384.701 120.166,384.205 119.600 C 383.916 119.270,383.451 118.190,383.171 117.200 C 382.892 116.210,382.349 115.040,381.964 114.600 C 381.580 114.160,381.141 113.131,380.991 112.314 C 380.840 111.497,380.475 110.628,380.180 110.383 C 379.885 110.139,379.350 109.052,378.990 107.969 C 378.630 106.886,378.184 106.000,377.999 106.000 C 377.814 106.000,377.446 105.325,377.182 104.500 C 376.918 103.675,376.386 102.640,376.000 102.200 C 375.614 101.760,375.090 100.747,374.834 99.948 C 374.579 99.150,374.017 98.177,373.585 97.786 C 373.153 97.396,372.800 96.848,372.800 96.569 C 372.800 96.290,372.350 95.527,371.800 94.873 C 371.250 94.219,370.800 93.510,370.800 93.297 C 370.800 93.084,370.260 92.231,369.600 91.400 C 368.940 90.569,368.400 89.716,368.400 89.503 C 368.400 89.290,367.995 88.606,367.500 87.983 C 365.661 85.669,364.000 83.312,364.000 83.019 C 364.000 82.853,363.102 81.611,362.005 80.259 C 360.908 78.906,359.744 77.440,359.417 77.000 C 359.091 76.560,358.121 75.245,357.263 74.078 C 353.805 69.379,338.247 53.297,332.163 48.134 C 330.603 46.810,328.950 45.383,328.490 44.963 C 328.030 44.544,326.916 43.660,326.015 43.000 C 325.113 42.340,323.166 40.864,321.688 39.720 C 320.210 38.576,318.522 37.271,317.937 36.820 C 317.352 36.369,316.683 36.000,316.451 36.000 C 316.218 36.000,315.413 35.460,314.661 34.800 C 313.909 34.140,313.138 33.591,312.947 33.580 C 312.756 33.569,311.520 32.761,310.200 31.785 C 308.880 30.808,307.125 29.718,306.300 29.361 C 305.475 29.005,304.800 28.565,304.800 28.384 C 304.800 28.202,304.454 27.944,304.030 27.810 C 303.607 27.675,302.641 27.145,301.885 26.632 C 301.128 26.118,299.842 25.478,299.026 25.209 C 298.211 24.940,297.452 24.479,297.339 24.184 C 297.226 23.890,296.617 23.535,295.985 23.397 C 295.354 23.258,294.424 22.830,293.919 22.445 C 293.413 22.061,292.370 21.504,291.600 21.207 C 290.830 20.911,289.930 20.451,289.600 20.185 C 289.270 19.919,288.280 19.476,287.400 19.200 C 286.520 18.924,285.530 18.474,285.200 18.200 C 284.870 17.926,283.880 17.478,283.000 17.206 C 282.120 16.934,280.648 16.281,279.729 15.756 C 278.810 15.230,277.730 14.798,277.329 14.796 C 276.928 14.794,275.700 14.350,274.600 13.809 C 273.500 13.268,272.239 12.819,271.797 12.813 C 271.355 12.806,270.185 12.374,269.197 11.854 C 268.209 11.334,266.680 10.778,265.800 10.618 C 264.920 10.458,263.447 9.985,262.527 9.566 C 261.606 9.147,259.716 8.638,258.327 8.435 C 256.937 8.232,255.260 7.794,254.600 7.462 C 253.940 7.129,252.044 6.672,250.388 6.445 C 248.731 6.218,246.711 5.755,245.900 5.416 C 245.088 5.077,242.573 4.608,240.312 4.375 C 238.050 4.141,235.230 3.679,234.044 3.348 C 229.195 1.993,201.491 1.303,187.493 2.189 " stroke="none" fill="#4c6c8c" fill-rule="evenodd" />
		<path id="path2" d="M203.200 0.582 C 203.200 1.026,202.509 1.198,200.300 1.303 C 198.705 1.379,200.910 1.440,205.200 1.438 C 209.490 1.437,211.425 1.375,209.500 1.302 C 206.758 1.198,206.000 1.042,206.000 0.584 C 206.000 0.183,205.561 0.000,204.600 0.000 C 203.641 0.000,203.200 0.183,203.200 0.582 M193.505 1.883 C 194.002 1.979,194.722 1.975,195.105 1.875 C 195.487 1.775,195.080 1.696,194.200 1.701 C 193.320 1.705,193.007 1.787,193.505 1.883 M215.705 1.887 C 216.314 1.979,217.214 1.977,217.705 1.882 C 218.197 1.787,217.700 1.711,216.600 1.714 C 215.500 1.717,215.097 1.795,215.705 1.887 M185.700 2.287 C 186.305 2.378,187.295 2.378,187.900 2.287 C 188.505 2.195,188.010 2.120,186.800 2.120 C 185.590 2.120,185.095 2.195,185.700 2.287 M222.307 2.290 C 223.026 2.379,224.106 2.377,224.707 2.286 C 225.308 2.195,224.720 2.122,223.400 2.124 C 222.080 2.126,221.588 2.201,222.307 2.290 M339.800 55.200 C 341.106 56.520,342.265 57.600,342.375 57.600 C 342.485 57.600,341.506 56.520,340.200 55.200 C 338.894 53.880,337.735 52.800,337.625 52.800 C 337.515 52.800,338.494 53.880,339.800 55.200 M345.000 60.400 C 346.306 61.720,347.465 62.800,347.575 62.800 C 347.685 62.800,346.706 61.720,345.400 60.400 C 344.094 59.080,342.935 58.000,342.825 58.000 C 342.715 58.000,343.694 59.080,345.000 60.400 M350.000 65.725 C 350.000 65.794,350.585 66.379,351.300 67.025 L 352.600 68.200 351.425 66.900 C 350.330 65.688,350.000 65.416,350.000 65.725 M189.300 91.876 C 189.685 91.976,190.315 91.976,190.700 91.876 C 191.085 91.775,190.770 91.693,190.000 91.693 C 189.230 91.693,188.915 91.775,189.300 91.876 M216.900 91.876 C 217.285 91.976,217.915 91.976,218.300 91.876 C 218.685 91.775,218.370 91.693,217.600 91.693 C 216.830 91.693,216.515 91.775,216.900 91.876 M135.578 115.900 L 134.200 117.400 135.700 116.022 C 136.525 115.263,137.200 114.588,137.200 114.522 C 137.200 114.216,136.862 114.504,135.578 115.900 M278.400 121.800 C 279.595 123.010,280.663 124.000,280.773 124.000 C 280.883 124.000,279.995 123.010,278.800 121.800 C 277.605 120.590,276.537 119.600,276.427 119.600 C 276.317 119.600,277.205 120.590,278.400 121.800 M109.867 153.849 C 109.060 154.884,108.400 156.040,108.400 156.417 C 108.400 156.794,108.111 157.342,107.758 157.635 C 107.405 157.928,106.689 159.075,106.168 160.184 C 105.646 161.293,105.053 162.470,104.850 162.800 C 104.062 164.080,102.400 167.697,102.400 168.131 C 102.400 168.383,101.968 169.491,101.440 170.594 C 100.150 173.290,98.912 177.086,97.982 181.200 C 97.559 183.070,97.027 185.020,96.800 185.533 C 96.573 186.046,96.210 188.206,95.993 190.333 C 95.776 192.460,95.293 195.640,94.921 197.400 C 93.979 201.845,93.970 215.440,94.906 219.230 C 95.264 220.676,95.740 223.652,95.965 225.842 C 96.189 228.032,96.662 230.628,97.015 231.612 C 97.368 232.595,97.835 234.476,98.052 235.791 C 98.269 237.105,98.796 238.747,99.223 239.438 C 99.650 240.129,100.001 241.123,100.002 241.647 C 100.002 242.171,100.542 243.680,101.200 245.000 C 101.858 246.320,102.398 247.675,102.398 248.011 C 102.399 248.347,102.676 249.016,103.013 249.497 C 103.350 249.978,103.894 251.134,104.223 252.066 C 104.552 252.998,105.057 254.039,105.345 254.380 C 105.633 254.721,106.109 255.630,106.404 256.400 C 106.698 257.170,107.268 258.122,107.669 258.516 C 108.071 258.909,108.409 259.539,108.420 259.916 C 108.431 260.292,109.238 261.680,110.213 263.000 C 111.188 264.320,112.335 266.030,112.762 266.800 C 115.623 271.958,134.741 291.474,137.075 291.620 C 137.254 291.631,138.480 292.436,139.800 293.407 C 141.120 294.379,143.640 295.997,145.400 297.003 C 147.160 298.008,148.870 298.992,149.200 299.188 C 149.530 299.384,151.240 300.198,153.000 300.997 C 154.760 301.797,156.830 302.777,157.600 303.175 C 158.370 303.574,159.630 304.032,160.400 304.193 C 161.170 304.354,162.340 304.812,163.000 305.210 C 163.660 305.607,164.920 306.061,165.800 306.217 C 166.680 306.374,168.430 306.929,169.688 307.451 C 170.946 307.973,172.706 308.400,173.598 308.400 C 174.490 308.400,176.250 308.763,177.510 309.206 C 178.769 309.649,181.780 310.186,184.200 310.398 C 186.620 310.610,190.784 310.973,193.454 311.204 C 196.848 311.498,199.615 311.498,202.654 311.204 C 205.044 310.973,209.200 310.612,211.889 310.402 C 214.578 310.192,217.458 309.736,218.289 309.388 C 219.120 309.040,221.103 308.591,222.696 308.388 C 224.288 308.186,226.268 307.678,227.096 307.258 C 227.923 306.839,229.410 306.365,230.400 306.204 C 231.390 306.044,232.470 305.680,232.800 305.395 C 233.130 305.111,234.300 304.605,235.400 304.272 C 236.500 303.938,238.156 303.291,239.081 302.833 C 240.005 302.375,241.016 302.000,241.327 302.000 C 241.638 302.000,242.324 301.660,242.853 301.244 C 243.381 300.829,244.440 300.191,245.207 299.827 C 245.973 299.462,247.500 298.649,248.600 298.019 C 249.700 297.390,251.320 296.501,252.200 296.045 C 253.080 295.589,254.610 294.585,255.600 293.816 C 256.590 293.046,257.905 292.133,258.521 291.787 C 259.673 291.140,260.271 290.673,262.255 288.866 C 262.885 288.292,264.570 286.804,266.000 285.560 C 271.582 280.703,279.548 272.166,281.717 268.714 C 283.135 266.458,282.165 264.927,278.100 263.004 C 277.385 262.666,276.800 262.214,276.800 262.000 C 276.800 261.786,276.215 261.337,275.500 261.002 C 274.291 260.436,272.508 259.278,270.600 257.819 C 268.507 256.218,266.888 255.154,265.700 254.598 C 264.985 254.263,264.400 253.814,264.400 253.600 C 264.400 253.386,263.815 252.937,263.100 252.602 C 261.661 251.929,259.362 250.373,258.335 249.378 C 257.969 249.023,257.129 248.433,256.469 248.066 C 255.809 247.700,254.555 247.003,253.684 246.517 C 252.812 246.031,251.992 245.356,251.862 245.017 C 251.732 244.678,251.374 244.400,251.068 244.400 C 250.761 244.400,249.872 243.905,249.093 243.300 C 248.314 242.695,247.081 241.840,246.352 241.400 C 245.624 240.960,244.655 240.330,244.200 240.000 C 243.745 239.670,242.771 239.040,242.036 238.600 C 241.301 238.160,240.227 237.433,239.650 236.984 C 239.072 236.536,238.150 235.951,237.600 235.685 C 237.050 235.419,235.790 234.574,234.800 233.808 C 233.810 233.043,232.460 232.117,231.800 231.752 C 231.140 231.387,230.510 230.959,230.400 230.800 C 230.290 230.641,229.570 230.190,228.800 229.796 C 228.030 229.403,227.165 228.748,226.877 228.340 C 226.590 227.933,226.109 227.600,225.808 227.600 C 225.507 227.600,224.733 227.155,224.086 226.611 C 223.440 226.067,222.481 225.437,221.956 225.210 C 221.430 224.983,220.190 224.171,219.200 223.405 C 218.210 222.640,216.725 221.647,215.900 221.199 C 215.075 220.751,214.400 220.220,214.400 220.019 C 214.400 219.818,213.995 219.530,213.500 219.380 C 213.005 219.229,212.273 218.818,211.873 218.466 C 211.473 218.115,210.547 217.461,209.814 217.013 C 207.855 215.817,203.544 212.952,202.451 212.122 C 201.027 211.039,199.918 210.287,198.436 209.400 C 197.701 208.960,196.601 208.195,195.992 207.700 C 195.383 207.205,194.701 206.800,194.476 206.800 C 194.252 206.800,193.648 206.433,193.134 205.984 C 192.620 205.535,191.581 204.770,190.824 204.284 C 188.016 202.480,186.904 201.780,185.606 201.000 C 184.874 200.560,183.952 199.895,183.559 199.521 C 183.165 199.148,182.293 198.558,181.621 198.211 C 180.950 197.864,180.400 197.440,180.400 197.270 C 180.400 197.100,179.758 196.729,178.974 196.445 C 178.190 196.161,177.453 195.684,177.338 195.383 C 177.223 195.083,176.560 194.473,175.864 194.028 C 175.169 193.583,174.247 192.989,173.816 192.709 C 173.385 192.429,172.125 191.617,171.016 190.905 C 169.907 190.193,168.730 189.356,168.400 189.044 C 168.070 188.733,167.125 188.157,166.300 187.765 C 165.475 187.373,164.800 186.908,164.800 186.731 C 164.800 186.555,164.170 186.148,163.400 185.826 C 162.630 185.504,162.000 185.079,162.000 184.881 C 162.000 184.683,161.280 184.197,160.400 183.800 C 159.520 183.403,158.800 182.923,158.800 182.733 C 158.800 182.543,158.170 182.087,157.400 181.719 C 156.630 181.352,156.000 180.908,156.000 180.731 C 156.000 180.555,155.415 180.137,154.700 179.802 C 153.237 179.117,150.995 177.615,149.810 176.526 C 149.375 176.127,148.565 175.573,148.010 175.296 C 147.049 174.817,145.137 173.521,143.400 172.171 C 142.960 171.830,141.610 170.947,140.400 170.211 C 139.190 169.475,137.895 168.596,137.521 168.258 C 137.148 167.919,136.293 167.358,135.621 167.011 C 134.950 166.664,134.400 166.224,134.400 166.033 C 134.400 165.843,133.725 165.395,132.900 165.039 C 132.075 164.682,130.590 163.763,129.600 162.995 C 128.610 162.227,127.350 161.385,126.800 161.124 C 126.250 160.863,125.440 160.318,125.000 159.913 C 123.853 158.858,120.677 156.816,120.170 156.807 C 119.933 156.803,119.317 156.350,118.800 155.800 C 118.283 155.250,117.696 154.800,117.496 154.800 C 117.295 154.800,116.381 154.275,115.465 153.633 C 112.575 151.609,111.582 151.647,109.867 153.849 M398.093 174.000 C 398.093 174.770,398.175 175.085,398.276 174.700 C 398.376 174.315,398.376 173.685,398.276 173.300 C 398.175 172.915,398.093 173.230,398.093 174.000 M398.800 179.200 C 398.800 179.420,399.070 179.600,399.400 179.600 C 399.730 179.600,400.000 179.420,400.000 179.200 C 400.000 178.980,399.730 178.800,399.400 178.800 C 399.070 178.800,398.800 178.980,398.800 179.200 M309.293 188.400 C 309.293 189.170,309.375 189.485,309.476 189.100 C 309.576 188.715,309.576 188.085,309.476 187.700 C 309.375 187.315,309.293 187.630,309.293 188.400 M309.755 195.000 C 309.756 197.860,309.820 198.978,309.897 197.483 C 309.974 195.989,309.974 193.649,309.896 192.283 C 309.818 190.918,309.755 192.140,309.755 195.000 M308.493 209.600 C 308.493 210.370,308.575 210.685,308.676 210.300 C 308.776 209.915,308.776 209.285,308.676 208.900 C 308.575 208.515,308.493 208.830,308.493 209.600 M398.800 209.800 C 398.800 210.130,399.070 210.400,399.400 210.400 C 399.730 210.400,400.000 210.130,400.000 209.800 C 400.000 209.470,399.730 209.200,399.400 209.200 C 399.070 209.200,398.800 209.470,398.800 209.800 M397.693 220.000 C 397.693 220.770,397.775 221.085,397.876 220.700 C 397.976 220.315,397.976 219.685,397.876 219.300 C 397.775 218.915,397.693 219.230,397.693 220.000 " stroke="none" fill="#64bcfc" fill-rule="evenodd" />
	</g>
</svg>
